<?xml version="1.0" encoding="UTF-8" standalone="no"?>
<!DOCTYPE svg PUBLIC "-//W3C//DTD SVG 1.1//EN" "http://www.w3.org/Graphics/SVG/1.1/DTD/svg11.dtd">
<svg version="1.1" xmlns="http://www.w3.org/2000/svg" xmlns:xlink="http://www.w3.org/1999/xlink" preserveAspectRatio="xMidYMid meet" viewBox="0 0 640 640" width="640" height="640"><defs><path d="M168.28 582.54C127.35 559.87 91.18 527.11 65.38 489.34C25.55 431.05 8.56 361.59 17.24 292.5C22.93 247.18 39.24 204.37 65.38 166.11C76.31 150.11 86.93 137.45 101.52 123.05C117.73 107.04 131.79 95.72 150.04 83.99C181.17 64 212.17 50.82 247.71 42.47C308.99 28.08 369.79 31.94 431 54.1C446.8 59.82 458.81 62.33 476.51 63.62C485.58 64.28 488.71 64.21 505.56 62.96C515.94 62.18 530.01 61.4 536.81 61.21C560.34 60.57 570.74 63.78 574.75 72.91C577.59 79.4 577.67 80.3 578.16 113.53C578.66 147.52 579.13 153.53 582.39 168.26C584.79 179.07 586.79 184.42 593.37 197.56C612.08 234.93 621.61 269.5 624.38 310C627.24 351.82 619.72 397.04 603.4 436.24C583.19 484.76 551.52 525.54 508.16 558.84C499.83 565.24 481.99 576.83 471.7 582.54C461.15 588.38 441.13 597.59 430.35 601.55C388.25 617.05 344.26 623.55 300.13 620.81C254.48 617.98 207.79 604.42 168.28 582.54ZM475.66 472.26C509.39 438.55 529.32 397.69 535.28 350.06C536.41 341.01 536.41 314.44 535.28 305.39C529.31 257.74 509.4 216.92 475.66 183.19C427.35 134.88 357.82 112.08 288.41 121.77C214.34 132.11 150.16 179.77 120.77 246.24C112.56 264.81 107.51 283.46 104.67 305.71C103.56 314.4 103.57 341.09 104.7 350.06C110.66 397.71 130.57 438.53 164.31 472.26C200.57 508.52 249.28 530.78 302.08 535.25C311.11 536.01 327.93 536.03 336.92 535.28C390.7 530.82 439.07 508.85 475.66 472.26Z" id="abkyEIAS1"></path></defs><g><g><g><use xlink:href="#abkyEIAS1" opacity="1" fill="#000000" fill-opacity="1"></use><g><use xlink:href="#abkyEIAS1" opacity="1" fill-opacity="0" stroke="#000000" stroke-width="0.35" stroke-opacity="0"></use></g></g></g></g></svg>